,
Brought to you by  http://www.scenetime.com/signup.php
 
 Hottest scene tracker on the net !!!   
 
No fake torrents from scenebalance 
shame on those who comment fake before downloading my torrents

    seed back for speed


 



...................................NFO:.................................................General 
Complete name : Wake Wood 2011 BRRip 720p Xvid AC3-Freebee.avi 
Format : AVI 
Format/Info : Audio Video Interleave 
Format profile : OpenDML 
File size : 2.16 GiB 
Duration : 1h 26mn 
Overall bit rate : 3 576 Kbps 

Video 
ID : 0 
Format : MPEG-4 Visual 
Format profile : Advanced Simple@L5 
Format settings, BVOP : 2 
Format settings, QPel : No 
Format settings, GMC : No warppoints 
Format settings, Matrix : Default (MPEG) 
Codec ID : XVID 
Codec ID/Hint : XviD 
Duration : 1h 26mn 
Bit rate : 3 116 Kbps 
Width : 1 280 pixels 
Height : 544 pixels 
Display aspect ratio : 2.35:1 
Frame rate : 25.000 fps 
Color space : YUV 
Chroma subsampling : 4:2:0 
Bit depth : 8 bits 
Scan type : Progressive 
Compression mode : Lossy 
Bits/(Pixel*Frame) : 0.179 
Stream size : 1.89 GiB (87%) 

Audio 
ID : 1 
Format : AC-3 
Format/Info : Audio Coding 3 
Mode extension : CM (complete main) 
Codec ID : 2000 
Duration : 1h 26mn 
Bit rate mode : Constant 
Bit rate : 448 Kbps 
Channel(s) : 6 channels 
Channel positions : Front: L C R, Side: L R, LFE 
Sampling rate : 48.0 KHz 
Bit depth : 16 bits 
Compression mode : Lossy 
Stream size : 278 MiB (13%) 
Alignment : Split accross interleaves 
Interleave, duration : 40 ms (1.00 video frame) 
Interleave, preload duration : 500 ms 


   
              Language.............: English
              Subtitle.............: None
              Imdb-Rating..........: 5.5/10
              Imdb.................: http://www.imdb.com/title/tt1296899/
              Video-Source.........: Bluray
              Audio-Source.........: Bluray
              Encoder..............: Freebee269
              Plot.................: The parents of a girl who was killed
 by a savage dog are granted the opportunity to spend three days with
 their deceased daughter. 
   
                    
                    Sample Included
                    


                    
                    Greets: All P2P Groups!
                    

 
                                          
                           Respects                  
                    
                     SANTi, TOXiCiNK, LKRG 
                    NPW, FLAWL3SS, BDK, CM8
                      IMAGiNE, ViSiON, Rx  
                          Legion, *THC*